<svg xmlns="http://www.w3.org/2000/svg" width="200" height="200" viewBox="0 0 200 200"><ellipse opacity=".01" fill="#fff" enable-background="new" cx="100" cy="98.7" rx="60.3" ry="84.7"/><linearGradient id="a" gradientUnits="userSpaceOnUse" x1="107.784" y1="10.512" x2="149.476" y2="246.959" gradientTransform="matrix(.781 0 0 .781 0 .01)"><stop offset="0" stop-color="#FF8C8F"/><stop offset=".38" stop-color="#F21818"/><stop offset=".446" stop-color="#E51515"/><stop offset=".568" stop-color="#C20E0E"/><stop offset=".732" stop-color="#8A0202"/><stop offset=".761" stop-color="#800000"/></linearGradient><path fill="url(#a)" d="M99.6 175.2c31 0 33.8-47 33.8-78.6 0-36.4-5.4-76.1-33.8-76.1s-33.1 42.2-33.1 76.1c0 31.3 2.6 78.6 33.1 78.6zm0-169.9c50.8 0 88.8 36.7 88.8 92.9 0 49.6-36 94.6-88.8 94.6-52.2 0-88.1-45-88.1-94.6.1-55.8 36.9-92.9 88.1-92.9z"/><linearGradient id="b" gradientUnits="userSpaceOnUse" x1="127.816" y1="220.859" x2="127.816" y2="244.412" gradientTransform="matrix(.781 0 0 .781 0 .01)"><stop offset="0" stop-color="#FF444C" stop-opacity="0"/><stop offset=".237" stop-color="#FF393F" stop-opacity=".237"/><stop offset=".671" stop-color="#FF1B1E" stop-opacity=".671"/><stop offset="1" stop-color="#f00"/></linearGradient><path opacity=".5" fill="url(#b)" enable-background="new" d="M152.1 172.5c-13.2 11.7-30.6 18.3-52.4 18.3-21.6 0-38.9-6.6-52.1-18.3l44.7-.1c2.3.6 4.8 1 7.4 1 2.7 0 5.2-.2 7.5-.9h44.9z"/><linearGradient id="c" gradientUnits="userSpaceOnUse" x1="126.867" y1="221.725" x2="129.331" y2="20.135" gradientTransform="matrix(.781 0 0 .781 0 .01)"><stop offset="0" stop-color="#E60000"/><stop offset=".357" stop-color="#DC0B0A"/><stop offset=".981" stop-color="#C02825"/><stop offset="1" stop-color="#BF2926"/></linearGradient><path opacity=".8" fill="url(#c)" enable-background="new" d="M99.6 172.9c-31.6 0-32.9-44.9-32.9-76.4 0-36.9 3.6-72.4 32.9-72.4 29.4 0 33.8 35.9 33.8 72.4 0 31.5-1.7 76.4-33.8 76.4zm0-153.5c-34.5 0-38 46.1-38 77 0 35 6.9 80.5 38 80.5 33.1 0 38.9-45.5 38.9-80.5.1-30.4-3.6-77-38.9-77z"/><linearGradient id="d" gradientUnits="userSpaceOnUse" x1="128.392" y1="220.283" x2="128.392" y2="21.742" gradientTransform="matrix(.781 0 0 .781 0 .01)"><stop offset="0" stop-color="#B80000"/><stop offset="1" stop-color="#900"/></linearGradient><path fill="url(#d)" d="M99.6 171.7c-30.5 0-31.8-44.2-31.8-75.1 0-36.3 3.4-71.2 31.8-71.2s32.6 35.3 32.6 71.1c.1 31.1-1.6 75.2-32.6 75.2zm.1-151c-34 0-36.4 45.7-36.4 75.9 0 34.4 5.7 79.2 36.4 79.2 32 0 37.6-44.8 37.6-79.2-.1-29.7-3.6-75.9-37.6-75.9z"/><g opacity=".5"><defs><filter filterUnits="userSpaceOnUse" x="66.4" y="24.3" width="67.3" height="71.5"><feColorMatrix values="1 0 0 0 0 0 1 0 0 0 0 0 1 0 0 0 0 0 1 0"/></filter></defs><g mask="url(#SVGID_4_)"><linearGradient id="e" gradientUnits="userSpaceOnUse" x1="128.072" y1="120.425" x2="128.072" y2="28.899" gradientTransform="matrix(.781 0 0 .781 0 .01)"><stop offset="0" stop-color="#CF0000" stop-opacity="0"/><stop offset=".131" stop-color="#BF0000" stop-opacity=".131"/><stop offset=".515" stop-color="#960000" stop-opacity=".515"/><stop offset=".818" stop-color="#7C0000" stop-opacity=".818"/><stop offset="1" stop-color="#730000"/></linearGradient><path fill="url(#e)" d="M66.4 95.8c0-32.5 4.4-70.3 33.2-70.3 28.9 0 34.1 39.5 34.1 69.8 0-27.4-3.7-71-34.1-71-30.2-.1-33.2 43.6-33.2 71.5z"/></g></g><g opacity=".15"><defs><filter filterUnits="userSpaceOnUse" x="67.5" y="101.6" width="65.1" height="71.5"><feColorMatrix values="1 0 0 0 0 0 1 0 0 0 0 0 1 0 0 0 0 0 1 0"/></filter></defs><g mask="url(#SVGID_2_)"><linearGradient id="f" gradientUnits="userSpaceOnUse" x1="128.072" y1="219.421" x2="128.072" y2="127.895" gradientTransform="matrix(.781 0 0 .781 0 .01)"><stop offset="0" stop-color="#730000"/><stop offset=".182" stop-color="#7C0000" stop-opacity=".818"/><stop offset=".485" stop-color="#960000" stop-opacity=".515"/><stop offset=".869" stop-color="#BF0000" stop-opacity=".131"/><stop offset="1" stop-color="#CF0000" stop-opacity="0"/></linearGradient><path fill="url(#f)" d="M132.6 101.6c0 32.5-4.8 70.3-32.7 70.3s-32.4-37.4-32.4-69.8c0 29.5 2.9 71 32.3 71s32.8-43.6 32.8-71.5z"/></g></g><linearGradient id="g" gradientUnits="userSpaceOnUse" x1="17.921" y1="184.895" x2="238.991" y2="184.895" gradientTransform="matrix(.781 0 0 .781 0 .01)"><stop offset="0" stop-color="#E8000F"/><stop offset="1" stop-color="#E0000F"/></linearGradient><path opacity=".8" fill="url(#g)" enable-background="new" d="M14 97.6c0 48 32.7 93.7 85.9 93.7 53.5 0 86.8-47 86.8-93.7 0 46.3-34 92.9-86.8 92.9-52.4 0-85.9-45.4-85.9-92.9z"/><linearGradient id="h" gradientUnits="userSpaceOnUse" x1="128.264" y1="104.103" x2="128.264" y2="-3.23" gradientTransform="matrix(.781 0 0 .781 0 .01)"><stop offset="0" stop-color="#fff" stop-opacity="0"/><stop offset="1" stop-color="#fff"/></linearGradient><path opacity=".65" fill="url(#h)" enable-background="new" d="M14.3 95.4c0-39.5 27.1-88.2 85.3-88.2 48.5 0 86.5 37.6 86.5 88.2 0-51-34.7-90-86.5-90-52.1 0-85.3 37.9-85.3 90z"/></svg>