<?xml version="1.0" encoding="utf-8"?>
<!-- Generator: Adobe Illustrator 18.1.1, SVG Export Plug-In . SVG Version: 6.00 Build 0)  -->
<!DOCTYPE svg PUBLIC "-//W3C//DTD SVG 1.1//EN" "http://www.w3.org/Graphics/SVG/1.1/DTD/svg11.dtd">
<svg version="1.1" id="Layer_1" xmlns="http://www.w3.org/2000/svg" xmlns:xlink="http://www.w3.org/1999/xlink" x="0px" y="0px"
	 width="200px" height="200px" viewBox="0 0 200 200" enable-background="new 0 0 200 200" xml:space="preserve">
<path fill="#1EBBEE" d="M196.7,107.5c0-15.3-4-29.7-10.9-42.1C215.4-1.5,154.1,8.3,150.7,9c-13,2.5-25,6.6-36,11.8
	c-1.6-0.1-3.3-0.1-4.9-0.1C68.5,20.5,33.9,49.3,25,88c21.8-24.4,37-34.3,46.1-38.2c-1.5,1.3-2.9,2.6-4.3,3.9L65.4,55l-2.7,2.7
	l-1.6,1.6l-2.4,2.4c-0.6,0.6-1.1,1.2-1.6,1.7c-0.7,0.8-1.5,1.6-2.2,2.3c-0.6,0.6-1.1,1.2-1.6,1.8l-2,2.3l-1.6,1.9
	c-0.6,0.7-1.2,1.5-1.9,2.2l-1.6,2L44.5,78c-0.5,0.7-1.1,1.4-1.6,2l-1.5,1.9l-1.7,2.2c-0.4,0.5-0.8,1-1.1,1.6
	c-3.4,4.7-6.6,9.3-9.4,13.7c-0.7,1.2-1.5,2.3-2.2,3.4l-0.1,0.2l-2.1,3.4c0,0,0,0.1-0.1,0.1c-1.8,3-3.4,5.9-4.9,8.6
	C12,129.3,8.2,139.2,8,139.8c-24.7,88.4,52.4,51.1,63.2,45.5c11.6,5.7,24.6,9,38.5,9c37.8,0,70-24.1,81.9-57.8h-45.7
	c-6.8,11.4-19.8,19.2-34.7,19.2c-21.9,0-39.7-16.6-39.7-37.1H196C196.5,115,196.7,111.2,196.7,107.5L196.7,107.5z M21.4,185.3
	c-6.1-6.3-7.2-21.5,6.3-49.2c6.8,19.5,20.3,35.9,37.9,46.3C56.8,187.1,33.7,197.9,21.4,185.3z M71.5,94.9C72.2,75,89.5,59,110.8,59
	s38.6,15.9,39.3,35.8L71.5,94.9L71.5,94.9z M141.2,26.4c8-3.9,28-12.1,39.3-4.5c7.5,5.1,13.5,13,3.2,39.7
	C173.8,45.7,158.9,33.2,141.2,26.4z"/>
</svg>
