<svg xmlns="http://www.w3.org/2000/svg" width="200" height="200" viewBox="0 0 200 200"><path fill-opacity=".1" d="M159.8 117.4c0-32.9-26.7-59.5-59.5-59.5s-59.5 26.7-59.5 59.5h17c0-23.5 19-42.5 42.5-42.5s42.5 19 42.5 42.5"/><radialGradient id="a" cx=".307" cy="200.169" r=".955" gradientTransform="matrix(80.178 0 0 -80.178 75.188 16110.912)" gradientUnits="userSpaceOnUse"><stop offset=".1" stop-color="#7FB3DF"/><stop offset=".9" stop-color="#0F5B94"/></radialGradient><radialGradient id="b" cx=".307" cy="200.189" r=".996" gradientTransform="matrix(80.178 0 0 -80.178 75.188 16110.912)" gradientUnits="userSpaceOnUse"><stop offset="0" stop-color="#F6F0EE"/><stop offset="1" stop-color="#ddd"/></radialGradient><circle fill="url(#a)" stroke="url(#b)" stroke-width="9" cx="99.8" cy="100" r="38.3"/><radialGradient id="c" cx=".409" cy="200.095" r=".477" gradientTransform="matrix(171.938 0 0 -113.298 32.872 22675.344)" gradientUnits="userSpaceOnUse"><stop offset="0" stop-color="#F06B59"/><stop offset="1" stop-color="#DF2227"/></radialGradient><path fill="url(#c)" d="M185.3 57.8c-23.4-47.1-80.6-66.3-127.7-42.9-14.7 7.3-27.2 18.3-36.4 31.8l38.3 66.3c-7-22.4 5.4-46.3 27.8-53.3 3.9-1.2 8-1.9 12.2-2"/><radialGradient id="d" cx=".538" cy="199.796" r=".726" gradientTransform="matrix(133.614 0 0 -155.011 15.962 31061.826)" gradientUnits="userSpaceOnUse"><stop offset=".65" stop-color="#4CB749"/><stop offset="1" stop-color="#388B41"/></radialGradient><path fill="url(#d)" d="M21.1 46.8c-29.2 43.7-17.6 102.8 26.1 132.1 13.5 9.1 29.1 14.5 45.4 15.8l40-68c-14.9 18.1-41.7 20.7-59.9 5.7-6.2-5.1-10.8-11.8-13.3-19.3"/><radialGradient id="e" cx=".203" cy="199.854" r=".764" gradientTransform="matrix(107.299 0 0 -143.719 107.705 28814.875)" gradientUnits="userSpaceOnUse"><stop offset=".6" stop-color="#FCD209"/><stop offset=".7" stop-color="#F7C616"/><stop offset="1" stop-color="#BC821E"/></radialGradient><path fill="url(#e)" d="M92.6 194.8c52.5 4 98.2-35.3 102.2-87.8 1.3-16.9-2-33.9-9.5-49.1h-85.9c23.5.1 42.4 19.2 42.3 42.7 0 9.5-3.3 18.7-9.2 26.2"/><path opacity=".075" enable-background="new" d="M21.1 46.8l38.3 66.3c-2.8-9.5-2.2-19.8 1.7-28.9l-38.3-40"/><path opacity=".05" enable-background="new" d="M92.6 194.8l40-68c-6.3 7.5-15 12.6-24.7 14.5l-17 53.6M185.3 57.8h-85.9c12.9.1 25.1 6 33.2 16.2l54.4-13.6"/></svg>