<svg xmlns="http://www.w3.org/2000/svg" width="200" height="200" viewBox="0 0 200 200"><linearGradient id="a" gradientUnits="userSpaceOnUse" x1=".5" y1="200.043" x2=".5" y2="198.957" gradientTransform="matrix(175 0 0 -175 12.5 35012.5)"><stop offset="0" stop-color="#19D7FF"/><stop offset="1" stop-color="#1E64F0"/></linearGradient><circle fill="url(#a)" cx="100" cy="100" r="95"/><path fill="#f00" d="M164.9 34.7l-73 57.2 17 17 56-74.2z"/><path fill="#fff" d="M34.7 164.9l57.3-72.9 17 17-74.3 55.9z"/><path stroke="#fff" stroke-width="3" fill="none" d="M100 14.3v14M100 171.2v14M114.8 15.6l-2.4 13.8M87.6 170.1l-2.4 13.8M129.2 19.5l-4.8 13.2M75.6 166.9l-4.8 13.2M85.2 15.6l2.4 13.8M112.4 170.1l2.4 13.8M70.8 19.5l4.8 13.2M124.4 166.9l4.8 13.2M57.2 25.8l7.1 12.1M135.8 161.7l7 12.1M45.1 34.3l9 10.7M145.9 154.5l9 10.8M34.5 44.9l10.7 9M154.8 145.7l10.7 9M26 57.1l12.1 7M161.9 135.5l12.1 7M19.7 70.6l13.2 4.8M167.1 124.2l13.2 4.8M15.9 84.9l13.7 2.5M170.4 112.2l13.7 2.4M14.5 99.8h14M171.5 99.8h14M15.9 114.6l13.7-2.4M170.4 87.4l13.7-2.5M19.7 129l13.2-4.8M167.1 75.4l13.2-4.8M26 142.5l12.1-7M161.9 64.1l12.1-7M34.5 154.7l10.7-9M154.8 53.9l10.7-9M45.1 165.3l9-10.8M145.9 45l9-10.7M57.2 173.8l7.1-12.1M135.8 37.9l7-12.1M92.5 14.7l.7 7.6M106.8 177.3l.7 7.6M77.9 17.3l2 7.3M120.1 174.9l2 7.4M63.9 22.3l3.2 7M132.9 170.3l3.2 6.9M51 29.8l4.3 6.2M144.7 163.5l4.3 6.3M39.6 39.4l5.4 5.3M155 154.8l5.4 5.4M30 50.8l6.3 4.3M163.7 144.4l6.3 4.4M22.6 63.7l6.9 3.2M170.5 132.7l6.9 3.2M17.5 77.6l7.3 2M175.2 119.9l7.3 2M14.9 92.3l7.6.7M177.5 106.6l7.6.7M14.9 107.3l7.6-.7M177.5 93l7.6-.7M17.5 121.9l7.3-2M175.2 79.6l7.3-2M22.6 135.9l6.9-3.2M170.5 66.9l6.9-3.2M30 148.8l6.3-4.4M163.7 55.1l6.3-4.3M51 169.8l4.3-6.3M144.6 36l4.4-6.2M63.9 177.2l3.2-6.9M132.9 29.3l3.2-7M77.9 182.3l2-7.4M120.1 24.6l2-7.3M92.5 184.9l.7-7.6M106.8 22.3l.7-7.6"/></svg>