<?xml version="1.0" encoding="iso-8859-1"?>
<!-- Generator: Adobe Illustrator 18.1.0, SVG Export Plug-In . SVG Version: 6.00 Build 0)  -->
<!DOCTYPE svg PUBLIC "-//W3C//DTD SVG 1.1//EN" "http://www.w3.org/Graphics/SVG/1.1/DTD/svg11.dtd">
<svg version="1.1" xmlns="http://www.w3.org/2000/svg" xmlns:xlink="http://www.w3.org/1999/xlink" x="0px" y="0px"
	 viewBox="0 0 32 32" style="enable-background:new 0 0 32 32;" xml:space="preserve">
<g id="Layer_4">
</g>
<g id="Layer_1">
</g>
<g id="header">
</g>
<g id="svg21775_copy">
	<path style="fill:#4C6575;" d="M31.5,14.715c0-1.946-1.583-3.529-3.529-3.529c-0.909,0-1.738,0.345-2.364,0.911
		c-2.377-1.542-5.455-2.448-8.752-2.591l1.812-5.728l4.927,1.16c0.013,1.594,1.312,2.887,2.909,2.887c1.604,0,2.91-1.305,2.91-2.91
		s-1.305-2.91-2.91-2.91c-1.193,0-2.22,0.722-2.669,1.751l-5.436-1.279c-0.307-0.072-0.617,0.104-0.712,0.405l-2.09,6.607
		c-3.481,0.055-6.75,0.959-9.257,2.561c-0.62-0.538-1.427-0.865-2.31-0.865c-1.946,0-3.529,1.583-3.529,3.529
		c0,1.261,0.665,2.368,1.662,2.993c-0.055,0.34-0.085,0.685-0.085,1.032c0,2.521,1.476,4.873,4.156,6.622
		c2.601,1.697,6.047,2.632,9.703,2.632s7.102-0.935,9.703-2.632c2.68-1.749,4.156-4.101,4.156-6.622
		c0-0.324-0.025-0.645-0.073-0.963C30.783,17.168,31.5,16.024,31.5,14.715z M9.179,17.059c0-1.177,0.988-2.165,2.165-2.165
		c1.177,0,2.133,0.988,2.133,2.165c0,1.177-0.956,2.133-2.133,2.133C10.167,19.192,9.179,18.236,9.179,17.059z M21.006,23.15
		c-1.046,1.045-2.678,1.553-4.989,1.553c-0.006,0-0.011-0.001-0.017-0.001c-0.006,0-0.011,0.001-0.017,0.001
		c-2.312,0-3.943-0.508-4.989-1.553c-0.235-0.235-0.235-0.617,0-0.852c0.235-0.235,0.617-0.235,0.852,0
		c0.808,0.808,2.161,1.2,4.136,1.2c0.006,0,0.011,0.001,0.017,0.001c0.006,0,0.011-0.001,0.017-0.001
		c1.976,0,3.329-0.393,4.138-1.201c0.235-0.235,0.617-0.235,0.852,0C21.241,22.533,21.241,22.914,21.006,23.15z M20.688,19.192
		c-1.178,0-2.168-0.955-2.168-2.133c0-1.178,0.99-2.165,2.168-2.165c1.178,0,2.133,0.987,2.133,2.165
		C22.821,18.237,21.866,19.192,20.688,19.192z"/>
</g>
</svg>
