<?xml version="1.0" encoding="iso-8859-1"?>
<!-- Generator: Adobe Illustrator 18.1.0, SVG Export Plug-In . SVG Version: 6.00 Build 0)  -->
<!DOCTYPE svg PUBLIC "-//W3C//DTD SVG 1.1//EN" "http://www.w3.org/Graphics/SVG/1.1/DTD/svg11.dtd">
<svg version="1.1" xmlns="http://www.w3.org/2000/svg" xmlns:xlink="http://www.w3.org/1999/xlink" x="0px" y="0px"
	 viewBox="0 0 32 32" style="enable-background:new 0 0 32 32;" xml:space="preserve">
<g id="Layer_4">
</g>
<g id="Layer_1">
	<g>
		<g>
			<rect x="6.952" y="25.118" style="fill:#4C6575;" width="12.235" height="2.613"/>
			
				<rect x="19.004" y="5.819" transform="matrix(0.171 0.9853 -0.9853 0.171 27.8451 -18.8444)" style="fill:#4C6575;" width="12.235" height="2.613"/>
			
				<rect x="7.154" y="21.197" transform="matrix(0.9958 0.0917 -0.0917 0.9958 2.1192 -1.122)" style="fill:#4C6575;" width="12.235" height="2.613"/>
			
				<rect x="7.922" y="16.721" transform="matrix(0.9657 0.2596 -0.2596 0.9657 5.1612 -3.0265)" style="fill:#4C6575;" width="12.235" height="2.613"/>
			
				<rect x="9.778" y="12.076" transform="matrix(0.8613 0.508 -0.508 0.8613 9.0028 -6.2197)" style="fill:#4C6575;" width="12.236" height="2.613"/>
			
				<rect x="13.769" y="7.91" transform="matrix(0.5634 0.8262 -0.8262 0.5634 16.2955 -12.4057)" style="fill:#4C6575;" width="12.235" height="2.613"/>
			<path style="fill:#4C6575;" d="M21.266,19.132v10.683H5.218V19.132h-2.09v12.733h0.021c0,0.01,0.61,0.01,0.61,0.01h19.576v-0.01
				c0.021,0,0.021-0.61,0.021-0.61V19.132H21.266z"/>
		</g>
	</g>
</g>
<g id="header">
</g>
<g id="svg21775_copy">
</g>
</svg>
