<?xml version="1.0" encoding="iso-8859-1"?>
<!-- Generator: Adobe Illustrator 18.1.0, SVG Export Plug-In . SVG Version: 6.00 Build 0)  -->
<!DOCTYPE svg PUBLIC "-//W3C//DTD SVG 1.1//EN" "http://www.w3.org/Graphics/SVG/1.1/DTD/svg11.dtd">
<svg version="1.1" xmlns="http://www.w3.org/2000/svg" xmlns:xlink="http://www.w3.org/1999/xlink" x="0px" y="0px"
	 viewBox="0 0 32 32" style="enable-background:new 0 0 32 32;" xml:space="preserve">
<g id="Layer_4">
</g>
<g id="Layer_1">
	<path style="fill:#4C6575;" d="M14.442,18.485c1.864,1.327,2.674,1.988,2.674,3.244c0,1.521-1.251,2.654-3.605,2.654
		c-2.623,0-4.314-1.255-4.314-2.999c0-1.744,1.568-2.334,2.108-2.529c1.029-0.346,2.353-0.395,2.574-0.395
		C14.124,18.46,14.247,18.46,14.442,18.485z M12.678,7.503c-0.639,0-1.324,0.319-1.717,0.811c-0.417,0.517-0.538,1.178-0.538,1.818
		c0,1.645,0.955,4.372,3.065,4.372c0.613,0,1.272-0.293,1.667-0.687c0.564-0.567,0.613-1.352,0.613-1.794
		C15.766,10.254,14.711,7.503,12.678,7.503z M30,28.119C30,28.606,29.608,29,29.125,29H2.875C2.392,29,2,28.606,2,28.119V2.881
		C2,2.394,2.392,2,2.875,2h26.251C29.608,2,30,2.394,30,2.881V28.119z M18.757,20.771c0-1.697-0.98-2.532-2.059-3.441l-0.883-0.685
		c-0.269-0.223-0.637-0.516-0.637-1.055c0-0.541,0.368-0.883,0.687-1.201c1.029-0.81,2.057-1.466,2.057-3.283
		C17.922,9.237,16.747,8,16.183,8h1.519l1.594-1h-4.83c-1.325,0-3.235,0.101-4.634,1.256c-1.054,0.909-1.568,2.051-1.568,3.179
		c0,1.916,1.471,3.808,4.069,3.808c0.245,0,0.514-0.049,0.784-0.074c-0.121,0.295-0.244,0.528-0.244,0.946
		c0,0.761,0.391,1.221,0.736,1.663c-1.104,0.076-3.164,0.195-4.683,1.129c-1.447,0.86-1.887,2.111-1.887,2.995
		c0,1.819,1.715,3.513,5.27,3.513C16.525,25.414,18.757,23.08,18.757,20.771z M25,14h-2v-2h-1v2h-3v2h3v2h1v-2h2V14z"/>
</g>
<g id="header">
</g>
<g id="svg21775_copy">
</g>
</svg>
