<?xml version="1.0" encoding="iso-8859-1"?>
<!-- Generator: Adobe Illustrator 18.1.0, SVG Export Plug-In . SVG Version: 6.00 Build 0)  -->
<!DOCTYPE svg PUBLIC "-//W3C//DTD SVG 1.1//EN" "http://www.w3.org/Graphics/SVG/1.1/DTD/svg11.dtd">
<svg version="1.1" xmlns="http://www.w3.org/2000/svg" xmlns:xlink="http://www.w3.org/1999/xlink" x="0px" y="0px"
	 viewBox="0 0 32 32" style="enable-background:new 0 0 32 32;" xml:space="preserve">
<g id="Layer_4">
</g>
<g id="Layer_1">
</g>
<g id="header">
	<path id="header_x5F_nav_x5F_li-github_9_" style="fill-rule:evenodd;clip-rule:evenodd;fill:#4C6575;" d="M15.999,0.883
		C7.44,0.883,0.5,7.822,0.5,16.384c0,6.847,4.441,12.657,10.601,14.707c0.775,0.142,1.058-0.336,1.058-0.747
		c0-0.368-0.013-1.343-0.021-2.636c-4.312,0.937-5.221-2.078-5.221-2.078c-0.705-1.791-1.721-2.267-1.721-2.267
		C3.788,22.4,5.302,22.42,5.302,22.42c1.555,0.11,2.374,1.597,2.374,1.597c1.383,2.369,3.628,1.685,4.511,1.288
		c0.141-1.002,0.541-1.685,0.984-2.072c-3.442-0.391-7.06-1.721-7.06-7.661c0-1.692,0.604-3.076,1.595-4.159
		c-0.159-0.392-0.691-1.968,0.152-4.102c0,0,1.301-0.417,4.262,1.589c1.236-0.344,2.562-0.516,3.88-0.522
		c1.316,0.006,2.642,0.178,3.88,0.522c2.959-2.006,4.258-1.589,4.258-1.589c0.846,2.134,0.314,3.71,0.154,4.102
		c0.993,1.084,1.593,2.467,1.593,4.159c0,5.954-3.624,7.265-7.077,7.648c0.557,0.479,1.052,1.425,1.052,2.87
		c0,2.072-0.019,3.744-0.019,4.252c0,0.414,0.279,0.897,1.066,0.745C27.063,29.035,31.5,23.229,31.5,16.384
		C31.5,7.822,24.56,0.883,15.999,0.883z"/>
</g>
<g id="svg21775_copy">
</g>
</svg>
