<?xml version="1.0" encoding="utf-8"?>
<!-- Generator: Adobe Illustrator 22.1.0, SVG Export Plug-In . SVG Version: 6.00 Build 0)  -->
<svg version="1.1" id="Layer_1" xmlns="http://www.w3.org/2000/svg" xmlns:xlink="http://www.w3.org/1999/xlink" x="0px" y="0px"
	 width="194.6px" height="60.09px" viewBox="0 0 194.6 60.09" style="enable-background:new 0 0 194.6 60.09;" xml:space="preserve"
	>
<style type="text/css">
	.st0{fill:#C9D1D8;}
	.st1{fill:#374252;}
	.st2{fill:#FAFCFF;}
	.st3{fill:#4C6575;}
</style>
<path id="header_x5F_nav_x5F_li-github_2_" class="st0" d="M14.9,0C6.7,0,0,6.7,0,14.9C0,21.4,4.3,27,10.2,29c0.7,0.1,1-0.3,1-0.7
	v-2.5c-4.1,0.9-5-2-5-2c-0.7-1.7-1.7-2.2-1.7-2.2c-1.3-0.9,0.1-0.9,0.1-0.9c1.5,0.1,2.3,1.5,2.3,1.5c1.3,2.3,3.5,1.6,4.3,1.2
	c0.1-1,0.5-1.6,0.9-2c-3.3-0.4-6.8-1.7-6.8-7.3c0-1.6,0.6-3,1.5-4c0-0.4-0.6-1.9,0.3-3.9c0,0,1.2-0.4,4.1,1.5
	c1.2-0.3,2.5-0.5,3.7-0.5c1.3,0,2.5,0.2,3.7,0.5c2.8-1.9,4.1-1.5,4.1-1.5c0.8,2,0.3,3.6,0.1,3.9c1,1,1.5,2.4,1.5,4
	c0,5.7-3.5,7-6.8,7.3c0.5,0.5,1,1.4,1,2.8v4.1c0,0.4,0.3,0.9,1,0.7c5.9-2,10.2-7.5,10.2-14.1C29.7,6.7,23.1,0,14.9,0z"/>
<path id="header_x5F_nav_x5F_li-github_9_" class="st1" d="M46.9,0C38.7,0,32,6.7,32,14.9C32,21.4,36.3,27,42.2,29
	c0.7,0.1,1-0.3,1-0.7v-2.5c-4.1,0.9-5-2-5-2c-0.7-1.7-1.7-2.2-1.7-2.2c-1.3-0.9,0.1-0.9,0.1-0.9c1.5,0.1,2.3,1.5,2.3,1.5
	c1.3,2.3,3.5,1.6,4.3,1.2c0.1-1,0.5-1.6,0.9-2c-3.3-0.4-6.8-1.7-6.8-7.3c0-1.6,0.6-3,1.5-4c-0.2-0.4-0.7-1.9,0.1-3.9
	c0,0,1.2-0.4,4.1,1.5c1.2-0.3,2.5-0.5,3.7-0.5c1.3,0,2.5,0.2,3.7,0.5c2.8-1.9,4.1-1.5,4.1-1.5c0.8,2,0.3,3.6,0.1,3.9
	c1,1,1.5,2.4,1.5,4c0,5.7-3.5,7-6.8,7.3c0.5,0.5,1,1.4,1,2.8v4.1c0,0.4,0.3,0.9,1,0.7c5.9-2,10.2-7.5,10.2-14.1
	C61.7,6.7,55.1,0,46.9,0z"/>
<path id="header_x5F_nav_x5F_li-twitter_2_" class="st0" d="M96,3.1c-1.2,0.5-2.4,0.9-3.8,1c1.4-0.8,2.4-2.1,2.9-3.6
	c-1.3,0.8-2.7,1.3-4.2,1.6C89.7,0.8,88,0,86.2,0c-3.6,0-6.6,2.9-6.6,6.6c0,0.5,0.1,1,0.2,1.5c-5.5-0.3-10.3-2.9-13.5-6.9
	c-0.6,1-0.9,2.1-0.9,3.3c0,2.3,1.2,4.3,2.9,5.5c-1.1,0-2.1-0.3-3-0.8v0.1c0,3.2,2.3,5.8,5.3,6.4c-0.6,0.1-1.1,0.2-1.7,0.2
	c-0.4,0-0.8,0-1.2-0.1c0.8,2.6,3.3,4.5,6.1,4.6c-2.2,1.8-5.1,2.8-8.2,2.8c-0.5,0-1.1,0-1.6-0.1C66.9,25,70.4,26,74.1,26
	c12.1,0,18.7-10,18.7-18.7V6.5C94,5.6,95.1,4.4,96,3.1L96,3.1z"/>
<path id="header_x5F_nav_x5F_li-twitter_1_" class="st2" d="M96,37.1c-1.2,0.5-2.4,0.9-3.8,1c1.4-0.8,2.4-2.1,2.9-3.6
	c-1.3,0.8-2.7,1.3-4.2,1.6C89.7,34.8,88,34,86.2,34c-3.6,0-6.6,2.9-6.6,6.6c0,0.5,0.1,1,0.2,1.5c-5.5-0.3-10.3-2.9-13.5-6.9
	c-0.6,1-0.9,2.1-0.9,3.3c0,2.3,1.2,4.3,2.9,5.5c-1.1,0-2.1-0.3-3-0.8v0.1c0,3.2,2.3,5.8,5.3,6.4c-0.6,0.1-1.1,0.2-1.7,0.2
	c-0.4,0-0.8,0-1.2-0.1c0.8,2.6,3.3,4.5,6.1,4.6c-2.2,1.8-5.1,2.8-8.2,2.8c-0.5,0-1.1,0-1.6-0.1C66.9,59,70.4,60,74.1,60
	c12.1,0,18.7-10,18.7-18.7v-0.8C94,39.6,95.1,38.4,96,37.1L96,37.1z"/>
<path id="header_x5F_nav_x5F_li-twitter_9_" class="st1" d="M129,3.1c-1.2,0.5-2.4,0.9-3.8,1c1.4-0.8,2.4-2.1,2.9-3.6
	c-1.3,0.8-2.7,1.3-4.2,1.6C122.7,0.8,121,0,119.2,0c-3.6,0-6.6,2.9-6.6,6.6c0,0.5,0.1,1,0.2,1.5c-5.5-0.3-10.3-2.9-13.5-6.9
	c-0.6,1-0.9,2.1-0.9,3.3c0,2.3,1.2,4.3,2.9,5.5c-1.1,0-2.1-0.3-3-0.8v0.1c0,3.2,2.3,5.8,5.3,6.4c-0.6,0.1-1.1,0.2-1.7,0.2
	c-0.4,0-0.8,0-1.2-0.1c0.8,2.6,3.3,4.5,6.1,4.6c-2.2,1.8-5.1,2.8-8.2,2.8c-0.5,0-1.1,0-1.6-0.1c2.9,1.9,6.4,2.9,10.1,2.9
	c12.1,0,18.7-10,18.7-18.7V6.5C127,5.6,128.1,4.4,129,3.1z"/>
<path id="header_x5F_nav_x5F_li-twitter_7_" class="st3" d="M129,37.1c-1.2,0.5-2.4,0.9-3.8,1c1.4-0.8,2.4-2.1,2.9-3.6
	c-1.3,0.8-2.7,1.3-4.2,1.6c-1.2-1.3-2.9-2.1-4.8-2.1c-3.6,0-6.6,2.9-6.6,6.6c0,0.5,0.1,1,0.2,1.5c-5.5-0.3-10.3-2.9-13.5-6.9
	c-0.6,1-0.9,2.1-0.9,3.3c0,2.3,1.2,4.3,2.9,5.5c-1.1,0-2.1-0.3-3-0.8v0.1c0,3.2,2.3,5.8,5.3,6.4c-0.6,0.1-1.1,0.2-1.7,0.2
	c-0.4,0-0.8,0-1.2-0.1c0.8,2.6,3.3,4.5,6.1,4.6c-2.2,1.8-5.1,2.8-8.2,2.8c-0.5,0-1.1,0-1.6-0.1C99.8,59,103.3,60,107,60
	c12.1,0,18.7-10,18.7-18.7v-0.8C127,39.6,128.1,38.4,129,37.1z"/>
<g id="nav">
	<path id="header_x5F_nav_x5F_li-github_27_" class="st2" d="M14.9,31C6.7,31,0,37.7,0,45.9C0,52.4,4.3,58,10.2,60
		c0.7,0.1,1-0.3,1-0.7v-2.5c-4.1,0.9-5-2-5-2c-0.7-1.7-1.7-2.2-1.7-2.2c-1.3-0.9,0.1-0.9,0.1-0.9c1.5,0.1,2.3,1.5,2.3,1.5
		c1.3,2.3,3.5,1.6,4.3,1.2c0.1-1,0.5-1.6,0.9-2c-3.3-0.4-6.8-1.7-6.8-7.3c0-1.6,0.6-3,1.5-4c-0.2-0.4-0.7-1.9,0.1-3.9
		c0,0,1.2-0.4,4.1,1.5c1.2-0.3,2.5-0.5,3.7-0.5c1.3,0,2.5,0.2,3.7,0.5c2.8-1.9,4.1-1.5,4.1-1.5c0.8,2,0.3,3.6,0.1,3.9
		c1,1,1.5,2.4,1.5,4c0,5.7-3.5,7-6.8,7.3c0.5,0.5,1,1.4,1,2.8v4.1c0,0.4,0.3,0.9,1,0.7c5.9-2,10.2-7.5,10.2-14.1
		C29.7,37.7,23.1,31,14.9,31z"/>
	<path id="header_x5F_nav_x5F_li-github_26_" class="st3" d="M46.9,31C38.7,31,32,37.7,32,45.9C32,52.4,36.3,58,42.2,60
		c0.7,0.1,1-0.3,1-0.7v-2.5c-4.1,0.9-5-2-5-2c-0.7-1.7-1.7-2.2-1.7-2.2c-1.3-0.9,0.1-0.9,0.1-0.9c1.5,0.1,2.3,1.5,2.3,1.5
		c1.3,2.3,3.5,1.6,4.3,1.2c0.1-1,0.5-1.6,0.9-2c-3.3-0.4-6.8-1.7-6.8-7.3c0-1.6,0.6-3,1.5-4c-0.2-0.4-0.7-1.9,0.1-3.9
		c0,0,1.2-0.4,4.1,1.5c1.2-0.3,2.5-0.5,3.7-0.5c1.3,0,2.5,0.2,3.7,0.5c2.8-1.9,4.1-1.5,4.1-1.5c0.8,2,0.3,3.6,0.1,3.9
		c1,1,1.5,2.4,1.5,4c0,5.7-3.5,7-6.8,7.3c0.5,0.5,1,1.4,1,2.8v4.1c0,0.4,0.3,0.9,1,0.7c5.9-2,10.2-7.5,10.2-14.1
		C61.7,37.7,55.1,31,46.9,31z"/>
</g>
<g>
	<polygon class="st1" points="172.22,13.48 172.22,16.12 174.19,14.8 	"/>
	<polygon class="st1" points="179.01,11.57 179.01,7.91 172.85,12.01 175.6,13.85 	"/>
	<polygon class="st1" points="186.75,12.01 180.59,7.91 180.59,11.57 184,13.85 	"/>
	<polygon class="st1" points="172.85,17.59 179.01,21.7 179.01,18.03 175.6,15.75 	"/>
	<polygon class="st1" points="180.59,18.03 180.59,21.7 186.75,17.59 184,15.75 	"/>
	<polygon class="st1" points="179.8,12.94 177.02,14.8 179.8,16.66 182.58,14.8 	"/>
	<path class="st1" d="M179.8,0C171.63,0,165,6.63,165,14.8c0,8.17,6.63,14.8,14.8,14.8c8.17,0,14.8-6.63,14.8-14.8
		C194.6,6.63,187.97,0,179.8,0z M188.95,17.59c0,0.03,0,0.07-0.01,0.1c0,0.01,0,0.02-0.01,0.03c0,0.02-0.01,0.04-0.01,0.07
		c0,0.01-0.01,0.03-0.01,0.04c-0.01,0.02-0.01,0.04-0.02,0.06c-0.01,0.01-0.01,0.03-0.02,0.04c-0.01,0.02-0.02,0.04-0.03,0.05
		c-0.01,0.01-0.01,0.02-0.02,0.04c-0.01,0.02-0.02,0.03-0.03,0.05c-0.01,0.01-0.02,0.02-0.03,0.03c-0.01,0.01-0.03,0.03-0.04,0.04
		c-0.01,0.01-0.02,0.02-0.03,0.03c-0.01,0.01-0.03,0.03-0.04,0.04c-0.01,0.01-0.02,0.02-0.04,0.03c0,0-0.01,0.01-0.01,0.01
		l-8.36,5.58c-0.13,0.09-0.28,0.13-0.44,0.13c-0.15,0-0.3-0.04-0.44-0.13L171,18.24c0,0-0.01-0.01-0.01-0.01
		c-0.01-0.01-0.02-0.02-0.04-0.03c-0.02-0.01-0.03-0.02-0.04-0.04c-0.01-0.01-0.02-0.02-0.03-0.03c-0.01-0.01-0.03-0.03-0.04-0.04
		c-0.01-0.01-0.02-0.02-0.03-0.03c-0.01-0.02-0.02-0.03-0.03-0.05c-0.01-0.01-0.02-0.02-0.02-0.04c-0.01-0.02-0.02-0.03-0.03-0.05
		c-0.01-0.01-0.01-0.03-0.02-0.04c-0.01-0.02-0.01-0.04-0.02-0.06c0-0.01-0.01-0.02-0.01-0.04c-0.01-0.02-0.01-0.04-0.01-0.07
		c0-0.01,0-0.02-0.01-0.03c0-0.03-0.01-0.07-0.01-0.1v-5.58c0-0.03,0-0.07,0.01-0.1c0-0.01,0-0.02,0.01-0.03
		c0-0.02,0.01-0.04,0.01-0.07c0-0.01,0.01-0.03,0.01-0.04c0.01-0.02,0.01-0.04,0.02-0.06c0.01-0.01,0.01-0.03,0.02-0.04
		c0.01-0.02,0.02-0.04,0.03-0.05c0.01-0.01,0.01-0.02,0.02-0.04c0.01-0.02,0.02-0.03,0.03-0.05c0.01-0.01,0.02-0.02,0.03-0.03
		c0.01-0.01,0.03-0.03,0.04-0.04c0.01-0.01,0.02-0.02,0.03-0.03c0.01-0.01,0.03-0.03,0.04-0.04c0.01-0.01,0.02-0.02,0.04-0.03
		c0,0,0.01-0.01,0.01-0.01l8.36-5.58c0.26-0.18,0.61-0.18,0.87,0l8.36,5.58c0,0,0.01,0.01,0.01,0.01c0.01,0.01,0.02,0.02,0.04,0.03
		c0.02,0.01,0.03,0.02,0.04,0.04c0.01,0.01,0.02,0.02,0.03,0.03c0.01,0.01,0.03,0.03,0.04,0.04c0.01,0.01,0.02,0.02,0.03,0.03
		c0.01,0.02,0.02,0.03,0.03,0.05c0.01,0.01,0.02,0.02,0.02,0.04c0.01,0.02,0.02,0.03,0.03,0.05c0.01,0.01,0.01,0.03,0.02,0.04
		c0.01,0.02,0.01,0.04,0.02,0.06c0,0.01,0.01,0.03,0.01,0.04c0.01,0.02,0.01,0.04,0.01,0.07c0,0.01,0,0.02,0.01,0.03
		c0,0.03,0.01,0.07,0.01,0.1V17.59z"/>
	<polygon class="st1" points="187.38,16.12 187.38,13.48 185.41,14.8 	"/>
</g>
<g>
	<polygon class="st2" points="141.22,43.48 141.22,46.12 143.19,44.8 	"/>
	<polygon class="st2" points="148.01,41.57 148.01,37.91 141.85,42.01 144.6,43.85 	"/>
	<polygon class="st2" points="155.75,42.01 149.59,37.91 149.59,41.57 153,43.85 	"/>
	<polygon class="st2" points="141.85,47.59 148.01,51.7 148.01,48.03 144.6,45.75 	"/>
	<polygon class="st2" points="149.59,48.03 149.59,51.7 155.75,47.59 153,45.75 	"/>
	<polygon class="st2" points="148.8,42.94 146.02,44.8 148.8,46.66 151.58,44.8 	"/>
	<path class="st2" d="M148.8,30c-8.17,0-14.8,6.63-14.8,14.8c0,8.17,6.63,14.8,14.8,14.8c8.17,0,14.8-6.63,14.8-14.8
		C163.6,36.63,156.97,30,148.8,30z M157.95,47.59c0,0.03,0,0.07-0.01,0.1c0,0.01,0,0.02-0.01,0.03c0,0.02-0.01,0.04-0.01,0.07
		c0,0.01-0.01,0.03-0.01,0.04c-0.01,0.02-0.01,0.04-0.02,0.06c-0.01,0.01-0.01,0.03-0.02,0.04c-0.01,0.02-0.02,0.04-0.03,0.05
		c-0.01,0.01-0.01,0.02-0.02,0.04c-0.01,0.02-0.02,0.03-0.03,0.05c-0.01,0.01-0.02,0.02-0.03,0.03c-0.01,0.01-0.03,0.03-0.04,0.04
		c-0.01,0.01-0.02,0.02-0.03,0.03c-0.01,0.01-0.03,0.03-0.04,0.04c-0.01,0.01-0.02,0.02-0.04,0.03c0,0-0.01,0.01-0.01,0.01
		l-8.36,5.58c-0.13,0.09-0.28,0.13-0.44,0.13c-0.15,0-0.3-0.04-0.44-0.13L140,48.24c0,0-0.01-0.01-0.01-0.01
		c-0.01-0.01-0.02-0.02-0.04-0.03c-0.02-0.01-0.03-0.02-0.04-0.04c-0.01-0.01-0.02-0.02-0.03-0.03c-0.01-0.01-0.03-0.03-0.04-0.04
		c-0.01-0.01-0.02-0.02-0.03-0.03c-0.01-0.02-0.02-0.03-0.03-0.05c-0.01-0.01-0.02-0.02-0.02-0.04c-0.01-0.02-0.02-0.03-0.03-0.05
		c-0.01-0.01-0.01-0.03-0.02-0.04c-0.01-0.02-0.01-0.04-0.02-0.06c0-0.01-0.01-0.02-0.01-0.04c-0.01-0.02-0.01-0.04-0.01-0.07
		c0-0.01,0-0.02-0.01-0.03c0-0.03-0.01-0.07-0.01-0.1v-5.58c0-0.03,0-0.07,0.01-0.1c0-0.01,0-0.02,0.01-0.03
		c0-0.02,0.01-0.04,0.01-0.07c0-0.01,0.01-0.03,0.01-0.04c0.01-0.02,0.01-0.04,0.02-0.06c0.01-0.01,0.01-0.03,0.02-0.04
		c0.01-0.02,0.02-0.04,0.03-0.05c0.01-0.01,0.01-0.02,0.02-0.04c0.01-0.02,0.02-0.03,0.03-0.05c0.01-0.01,0.02-0.02,0.03-0.03
		c0.01-0.01,0.03-0.03,0.04-0.04c0.01-0.01,0.02-0.02,0.03-0.03c0.01-0.01,0.03-0.03,0.04-0.04c0.01-0.01,0.02-0.02,0.04-0.03
		c0,0,0.01-0.01,0.01-0.01l8.36-5.58c0.26-0.18,0.61-0.18,0.87,0l8.36,5.58c0,0,0.01,0.01,0.01,0.01c0.01,0.01,0.02,0.02,0.04,0.03
		c0.02,0.01,0.03,0.02,0.04,0.04c0.01,0.01,0.02,0.02,0.03,0.03c0.01,0.01,0.03,0.03,0.04,0.04c0.01,0.01,0.02,0.02,0.03,0.03
		c0.01,0.02,0.02,0.03,0.03,0.05c0.01,0.01,0.02,0.02,0.02,0.04c0.01,0.02,0.02,0.03,0.03,0.05c0.01,0.01,0.01,0.03,0.02,0.04
		c0.01,0.02,0.01,0.04,0.02,0.06c0,0.01,0.01,0.03,0.01,0.04c0.01,0.02,0.01,0.04,0.01,0.07c0,0.01,0,0.02,0.01,0.03
		c0,0.03,0.01,0.07,0.01,0.1V47.59z"/>
	<polygon class="st2" points="156.38,46.12 156.38,43.48 154.41,44.8 	"/>
</g>
<g>
	<polygon class="st3" points="172.22,43.48 172.22,46.12 174.19,44.8 	"/>
	<polygon class="st3" points="179.01,41.57 179.01,37.91 172.85,42.01 175.6,43.85 	"/>
	<polygon class="st3" points="186.75,42.01 180.59,37.91 180.59,41.57 184,43.85 	"/>
	<polygon class="st3" points="172.85,47.59 179.01,51.7 179.01,48.03 175.6,45.75 	"/>
	<polygon class="st3" points="180.59,48.03 180.59,51.7 186.75,47.59 184,45.75 	"/>
	<polygon class="st3" points="179.8,42.94 177.02,44.8 179.8,46.66 182.58,44.8 	"/>
	<path class="st3" d="M179.8,30c-8.17,0-14.8,6.63-14.8,14.8c0,8.17,6.63,14.8,14.8,14.8c8.17,0,14.8-6.63,14.8-14.8
		C194.6,36.63,187.97,30,179.8,30z M188.95,47.59c0,0.03,0,0.07-0.01,0.1c0,0.01,0,0.02-0.01,0.03c0,0.02-0.01,0.04-0.01,0.07
		c0,0.01-0.01,0.03-0.01,0.04c-0.01,0.02-0.01,0.04-0.02,0.06c-0.01,0.01-0.01,0.03-0.02,0.04c-0.01,0.02-0.02,0.04-0.03,0.05
		c-0.01,0.01-0.01,0.02-0.02,0.04c-0.01,0.02-0.02,0.03-0.03,0.05c-0.01,0.01-0.02,0.02-0.03,0.03c-0.01,0.01-0.03,0.03-0.04,0.04
		c-0.01,0.01-0.02,0.02-0.03,0.03c-0.01,0.01-0.03,0.03-0.04,0.04c-0.01,0.01-0.02,0.02-0.04,0.03c0,0-0.01,0.01-0.01,0.01
		l-8.36,5.58c-0.13,0.09-0.28,0.13-0.44,0.13c-0.15,0-0.3-0.04-0.44-0.13L171,48.24c0,0-0.01-0.01-0.01-0.01
		c-0.01-0.01-0.02-0.02-0.04-0.03c-0.02-0.01-0.03-0.02-0.04-0.04c-0.01-0.01-0.02-0.02-0.03-0.03c-0.01-0.01-0.03-0.03-0.04-0.04
		c-0.01-0.01-0.02-0.02-0.03-0.03c-0.01-0.02-0.02-0.03-0.03-0.05c-0.01-0.01-0.02-0.02-0.02-0.04c-0.01-0.02-0.02-0.03-0.03-0.05
		c-0.01-0.01-0.01-0.03-0.02-0.04c-0.01-0.02-0.01-0.04-0.02-0.06c0-0.01-0.01-0.02-0.01-0.04c-0.01-0.02-0.01-0.04-0.01-0.07
		c0-0.01,0-0.02-0.01-0.03c0-0.03-0.01-0.07-0.01-0.1v-5.58c0-0.03,0-0.07,0.01-0.1c0-0.01,0-0.02,0.01-0.03
		c0-0.02,0.01-0.04,0.01-0.07c0-0.01,0.01-0.03,0.01-0.04c0.01-0.02,0.01-0.04,0.02-0.06c0.01-0.01,0.01-0.03,0.02-0.04
		c0.01-0.02,0.02-0.04,0.03-0.05c0.01-0.01,0.01-0.02,0.02-0.04c0.01-0.02,0.02-0.03,0.03-0.05c0.01-0.01,0.02-0.02,0.03-0.03
		c0.01-0.01,0.03-0.03,0.04-0.04c0.01-0.01,0.02-0.02,0.03-0.03c0.01-0.01,0.03-0.03,0.04-0.04c0.01-0.01,0.02-0.02,0.04-0.03
		c0,0,0.01-0.01,0.01-0.01l8.36-5.58c0.26-0.18,0.61-0.18,0.87,0l8.36,5.58c0,0,0.01,0.01,0.01,0.01c0.01,0.01,0.02,0.02,0.04,0.03
		c0.02,0.01,0.03,0.02,0.04,0.04c0.01,0.01,0.02,0.02,0.03,0.03c0.01,0.01,0.03,0.03,0.04,0.04c0.01,0.01,0.02,0.02,0.03,0.03
		c0.01,0.02,0.02,0.03,0.03,0.05c0.01,0.01,0.02,0.02,0.02,0.04c0.01,0.02,0.02,0.03,0.03,0.05c0.01,0.01,0.01,0.03,0.02,0.04
		c0.01,0.02,0.01,0.04,0.02,0.06c0,0.01,0.01,0.03,0.01,0.04c0.01,0.02,0.01,0.04,0.01,0.07c0,0.01,0,0.02,0.01,0.03
		c0,0.03,0.01,0.07,0.01,0.1V47.59z"/>
	<polygon class="st3" points="187.38,46.12 187.38,43.48 185.41,44.8 	"/>
</g>
<g>
	<polygon class="st0" points="141.22,13.48 141.22,16.12 143.19,14.8 	"/>
	<polygon class="st0" points="148.01,11.57 148.01,7.91 141.85,12.01 144.6,13.85 	"/>
	<polygon class="st0" points="155.75,12.01 149.59,7.91 149.59,11.57 153,13.85 	"/>
	<polygon class="st0" points="141.85,17.59 148.01,21.7 148.01,18.03 144.6,15.75 	"/>
	<polygon class="st0" points="149.59,18.03 149.59,21.7 155.75,17.59 153,15.75 	"/>
	<polygon class="st0" points="148.8,12.94 146.02,14.8 148.8,16.66 151.58,14.8 	"/>
	<path class="st0" d="M148.8,0C140.63,0,134,6.63,134,14.8c0,8.17,6.63,14.8,14.8,14.8c8.17,0,14.8-6.63,14.8-14.8
		C163.6,6.63,156.97,0,148.8,0z M157.95,17.59c0,0.03,0,0.07-0.01,0.1c0,0.01,0,0.02-0.01,0.03c0,0.02-0.01,0.04-0.01,0.07
		c0,0.01-0.01,0.03-0.01,0.04c-0.01,0.02-0.01,0.04-0.02,0.06c-0.01,0.01-0.01,0.03-0.02,0.04c-0.01,0.02-0.02,0.04-0.03,0.05
		c-0.01,0.01-0.01,0.02-0.02,0.04c-0.01,0.02-0.02,0.03-0.03,0.05c-0.01,0.01-0.02,0.02-0.03,0.03c-0.01,0.01-0.03,0.03-0.04,0.04
		c-0.01,0.01-0.02,0.02-0.03,0.03c-0.01,0.01-0.03,0.03-0.04,0.04c-0.01,0.01-0.02,0.02-0.04,0.03c0,0-0.01,0.01-0.01,0.01
		l-8.36,5.58c-0.13,0.09-0.28,0.13-0.44,0.13c-0.15,0-0.3-0.04-0.44-0.13L140,18.24c0,0-0.01-0.01-0.01-0.01
		c-0.01-0.01-0.02-0.02-0.04-0.03c-0.02-0.01-0.03-0.02-0.04-0.04c-0.01-0.01-0.02-0.02-0.03-0.03c-0.01-0.01-0.03-0.03-0.04-0.04
		c-0.01-0.01-0.02-0.02-0.03-0.03c-0.01-0.02-0.02-0.03-0.03-0.05c-0.01-0.01-0.02-0.02-0.02-0.04c-0.01-0.02-0.02-0.03-0.03-0.05
		c-0.01-0.01-0.01-0.03-0.02-0.04c-0.01-0.02-0.01-0.04-0.02-0.06c0-0.01-0.01-0.02-0.01-0.04c-0.01-0.02-0.01-0.04-0.01-0.07
		c0-0.01,0-0.02-0.01-0.03c0-0.03-0.01-0.07-0.01-0.1v-5.58c0-0.03,0-0.07,0.01-0.1c0-0.01,0-0.02,0.01-0.03
		c0-0.02,0.01-0.04,0.01-0.07c0-0.01,0.01-0.03,0.01-0.04c0.01-0.02,0.01-0.04,0.02-0.06c0.01-0.01,0.01-0.03,0.02-0.04
		c0.01-0.02,0.02-0.04,0.03-0.05c0.01-0.01,0.01-0.02,0.02-0.04c0.01-0.02,0.02-0.03,0.03-0.05c0.01-0.01,0.02-0.02,0.03-0.03
		c0.01-0.01,0.03-0.03,0.04-0.04c0.01-0.01,0.02-0.02,0.03-0.03c0.01-0.01,0.03-0.03,0.04-0.04c0.01-0.01,0.02-0.02,0.04-0.03
		c0,0,0.01-0.01,0.01-0.01l8.36-5.58c0.26-0.18,0.61-0.18,0.87,0l8.36,5.58c0,0,0.01,0.01,0.01,0.01c0.01,0.01,0.02,0.02,0.04,0.03
		c0.02,0.01,0.03,0.02,0.04,0.04c0.01,0.01,0.02,0.02,0.03,0.03c0.01,0.01,0.03,0.03,0.04,0.04c0.01,0.01,0.02,0.02,0.03,0.03
		c0.01,0.02,0.02,0.03,0.03,0.05c0.01,0.01,0.02,0.02,0.02,0.04c0.01,0.02,0.02,0.03,0.03,0.05c0.01,0.01,0.01,0.03,0.02,0.04
		c0.01,0.02,0.01,0.04,0.02,0.06c0,0.01,0.01,0.03,0.01,0.04c0.01,0.02,0.01,0.04,0.01,0.07c0,0.01,0,0.02,0.01,0.03
		c0,0.03,0.01,0.07,0.01,0.1V17.59z"/>
	<polygon class="st0" points="156.38,16.12 156.38,13.48 154.41,14.8 	"/>
</g>
</svg>
