<svg xmlns="http://www.w3.org/2000/svg" viewBox="0 0 332 120" enable-background="new 0 0 332 120"><g><path d="M168.236 77.526l29.795-33.549c.286-.322.057-.832-.374-.832h-27.619c-.276 0-.5-.224-.5-.5v-10.172c0-.276.224-.5.5-.5h43.771c.276 0 .5.224.5.5v9.729c0 .121-.044.237-.123.328l-29.226 33.554c-.282.324-.052.828.377.828h29.062c.276 0 .5.224.5.5v10.088c0 .276-.224.5-.5.5h-45.789c-.276 0-.5-.224-.5-.5v-9.642c-.001-.122.044-.241.126-.332zm79.001 11.903c-4.145 0-7.994-.757-11.55-2.269-3.557-1.512-6.636-3.583-9.24-6.216-2.604-2.632-4.648-5.754-6.132-9.366s-2.226-7.489-2.226-11.634c0-4.2.741-8.091 2.226-11.676 1.483-3.583 3.528-6.691 6.132-9.324 2.604-2.631 5.684-4.704 9.24-6.216 3.556-1.512 7.405-2.268 11.55-2.268 4.144 0 7.993.756 11.55 2.268 3.556 1.512 6.637 3.584 9.24 6.216 2.604 2.633 4.647 5.741 6.132 9.324 1.483 3.584 2.227 7.476 2.227 11.676 0 4.145-.743 8.021-2.227 11.634-1.484 3.612-3.527 6.734-6.132 9.366-2.604 2.633-5.685 4.704-9.24 6.216-3.557 1.512-7.406 2.269-11.55 2.269zm0-11.929c2.464 0 4.676-.475 6.636-1.428 1.96-.951 3.626-2.239 4.998-3.864 1.372-1.623 2.422-3.499 3.15-5.628.728-2.127 1.092-4.396 1.092-6.804 0-2.407-.364-4.675-1.092-6.804-.729-2.128-1.778-3.99-3.15-5.586-1.372-1.596-3.038-2.856-4.998-3.78s-4.172-1.386-6.636-1.386c-2.465 0-4.69.462-6.678 1.386-1.988.924-3.669 2.184-5.04 3.78-1.373 1.596-2.423 3.458-3.15 5.586-.729 2.129-1.092 4.396-1.092 6.804 0 2.408.363 4.677 1.092 6.804.728 2.129 1.777 4.005 3.15 5.628 1.371 1.625 3.052 2.913 5.04 3.864 1.988.953 4.213 1.428 6.678 1.428zm37.543-45.527h37.304c.276 0 .5.224.5.5v10.088c0 .276-.224.5-.5.5h-24.62c-.276 0-.5.224-.5.5v9.92c0 .276.224.5.5.5h18.908c.276 0 .5.224.5.5v9.752c0 .276-.224.5-.5.5h-18.908c-.276 0-.5.224-.5.5v11.096c0 .276.224.5.5.5h26.469c.276 0 .5.224.5.5v10.171c0 .276-.224.5-.5.5h-39.153c-.276 0-.5-.224-.5-.5v-55.027c0-.276.224-.5.5-.5zm4.62-15.876h10.088c.276 0 .5.224.5.5v9.248c0 .276-.224.5-.5.5h-10.088c-.276 0-.5-.224-.5-.5v-9.248c0-.276.224-.5.5-.5zm18.396 0h10.089c.276 0 .5.224.5.5v9.248c0 .276-.224.5-.5.5h-10.089c-.276 0-.5-.224-.5-.5v-9.248c0-.276.224-.5.5-.5z" fill="#405261"/><linearGradient id="a" gradientUnits="userSpaceOnUse" x1="69.75" y1="116.323" x2="69.75" y2="1.177"><stop offset="0" stop-color="#BFEE37"/><stop offset=".234" stop-color="#C1EF3B"/><stop offset=".477" stop-color="#C6F248"/><stop offset=".724" stop-color="#CFF75C"/><stop offset=".971" stop-color="#DCFE79"/><stop offset="1" stop-color="#DDFF7D"/></linearGradient><path d="M115.442 79.855v33.467c0 1.657-1.343 3-3 3h-85.384c-1.657 0-3-1.343-3-3v-33.467h91.384zm-.192-47.011h-27.667v27h27.667v-27zm-31.667 0h-27.666v27h27.667v-27zm31.667-28.667c0-1.657-1.343-3-3-3h-24.667v27.667h27.667v-24.667zm-31.667-3h-27.666v27.667h27.667v-27.667zm-66.394 74.667h105.123c1.105 0 2-.895 2-2v-8c0-1.105-.895-2-2-2h-105.123c-1.105 0-2 .895-2 2v8c0 1.105.895 2 2 2zm34.728-71.838l-24.839 24.838h24.838v-24.838zm0 28.838h-27.667v27h27.667v-27z" fill="url(#a)"/></g></svg>